<svg width="390" height="161" viewBox="0 0 390 161" fill="none" xmlns="http://www.w3.org/2000/svg">
<path fill-rule="evenodd" clip-rule="evenodd" d="M0 129.35L9 118.342C19 107.333 37 85.3162 56 82.5641C74 81.188 93 96.3248 111 99.0769C130 101.829 149 90.8205 167 85.3162C186 81.188 204 81.188 223 88.0684C241 96.3248 260 112.838 279 112.838C297 112.838 316 96.3248 334 75.6838C353 53.6667 371 27.5214 381 13.7607L390 0V161H381C371 161 353 161 334 161C316 161 297 161 279 161C260 161 241 161 223 161C204 161 186 161 167 161C149 161 130 161 111 161C93 161 74 161 56 161C37 161 19 161 9 161H0V129.35Z" fill="#669BBC"/>
</svg>
